<?xml version="1.0" encoding="iso-8859-1"?>
<!-- Generator: Adobe Illustrator 19.0.0, SVG Export Plug-In . SVG Version: 6.00 Build 0)  -->
<svg version="1.1" id="Capa_1" xmlns="http://www.w3.org/2000/svg" xmlns:xlink="http://www.w3.org/1999/xlink" x="0px" y="0px"
	 viewBox="0 0 511.89 511.89" style="enable-background:new 0 0 511.89 511.89;" xml:space="preserve">
<rect x="283.935" y="4.006" style="fill:#AC92EC;" width="223.94" height="199.95"/>
<polygon style="fill:#FFCE54;" points="251.938,211.955 243.94,219.953 235.942,211.955 235.942,43.996 251.938,43.996 "/>
<rect x="155.965" y="20.004" style="fill:#AC92EC;" width="47.988" height="23.994"/>
<rect x="67.985" y="20.004" style="fill:#AAB2BD;" width="15.996" height="15.996"/>
<rect x="3.999" y="12.004" style="fill:#656D78;" width="63.984" height="31.992"/>
<g style="opacity:0.2;">
	<rect x="3.999" y="12.004" style="fill:#FFFFFF;" width="63.984" height="7.998"/>
</g>
<g style="opacity:0.2;">
	<rect x="3.999" y="35.994" width="63.984" height="7.998"/>
</g>
<rect x="467.885" y="403.904" style="fill:#AC92EC;" width="31.992" height="31.992"/>
<rect x="467.885" y="435.904" style="fill:#656D78;" width="31.992" height="71.982"/>
<rect x="235.945" y="403.904" style="fill:#AC92EC;" width="199.95" height="103.97"/>
<path style="fill:#CCD1D9;" d="M443.891,259.935c-30.922,0-55.994,25.072-55.994,55.994s25.072,55.994,55.994,55.994
	s55.994-25.072,55.994-55.994S474.813,259.935,443.891,259.935z M443.891,323.927c-4.413,0-7.998-3.585-7.998-7.998
	s3.585-7.998,7.998-7.998s7.998,3.585,7.998,7.998S448.304,323.927,443.891,323.927z"/>
<path style="fill:#E6E9ED;" d="M443.891,259.935c-30.922,0-55.994,25.072-55.994,55.994s25.072,55.994,55.994,55.994
	s55.994-25.072,55.994-55.994S474.813,259.935,443.891,259.935z M443.891,363.918c-26.493,0-47.988-21.495-47.988-47.988
	s21.495-47.988,47.988-47.988s47.988,21.495,47.988,47.988S470.384,363.918,443.891,363.918z"/>
<rect x="235.945" y="251.944" style="fill:#AC92EC;" width="119.97" height="119.97"/>
<g>
	<polygon style="fill:#E6E9ED;" points="203.95,371.916 3.999,371.916 3.999,75.988 179.956,75.988 203.95,99.99 	"/>
	<rect x="3.999" y="403.904" style="fill:#E6E9ED;" width="199.95" height="103.97"/>
</g>
<path style="fill:#FFCE54;" d="M323.921,311.93c0,15.465-12.536,27.993-27.993,27.993c-15.465,0-27.993-12.528-27.993-27.993
	s12.528-27.993,27.993-27.993C311.384,283.938,323.921,296.465,323.921,311.93z"/>
<g style="opacity:0.5;">
	<path style="fill:#FFFFFF;" d="M275.932,311.93c0-14.09,10.435-25.635,23.994-27.587c-1.32-0.188-2.632-0.406-3.999-0.406
		c-15.465,0-27.993,12.528-27.993,27.993s12.528,27.993,27.993,27.993c1.367,0,2.679-0.219,3.999-0.406
		C286.367,337.565,275.932,326.02,275.932,311.93z"/>
</g>
<g style="opacity:0.2;">
	<path d="M315.923,311.93c0,14.09-10.45,25.635-23.994,27.587c1.312,0.188,2.624,0.406,3.999,0.406
		c15.457,0,27.993-12.528,27.993-27.993s-12.536-27.993-27.993-27.993c-1.375,0-2.688,0.219-3.999,0.406
		C305.472,286.296,315.923,297.84,315.923,311.93z"/>
</g>
<path style="fill:#656D78;" d="M277.541,332.886c4.921,4.327,11.311,7.037,18.387,7.037c7.17,0,13.637-2.772,18.589-7.201
	l-18.589-24.791L277.541,332.886z"/>
<g style="opacity:0.2;">
	<polygon style="fill:#FFFFFF;" points="282.946,336.643 299.958,313.313 295.927,307.931 277.541,332.886 	"/>
</g>
<path style="fill:#FFCE54;" d="M363.911,455.895c0,15.465-12.536,27.993-27.993,27.993c-15.465,0-27.993-12.528-27.993-27.993
	s12.528-27.993,27.993-27.993C351.375,427.902,363.911,440.43,363.911,455.895z"/>
<g style="opacity:0.5;">
	<path style="fill:#FFFFFF;" d="M315.923,455.895c0-14.09,10.435-25.635,23.994-27.587c-1.32-0.188-2.632-0.406-3.999-0.406
		c-15.465,0-27.993,12.528-27.993,27.993s12.528,27.993,27.993,27.993c1.367,0,2.679-0.219,3.999-0.406
		C326.357,481.53,315.923,469.985,315.923,455.895z"/>
</g>
<g style="opacity:0.2;">
	<path d="M355.913,455.895c0,14.09-10.45,25.635-23.994,27.587c1.312,0.188,2.624,0.406,3.999,0.406
		c15.457,0,27.993-12.528,27.993-27.993s-12.536-27.993-27.993-27.993c-1.375,0-2.688,0.219-3.999,0.406
		C345.463,430.26,355.913,441.805,355.913,455.895z"/>
</g>
<path style="fill:#656D78;" d="M317.531,476.852c4.921,4.327,11.311,7.037,18.387,7.037c7.17,0,13.637-2.772,18.589-7.201
	l-18.589-24.791L317.531,476.852z"/>
<g style="opacity:0.2;">
	<polygon style="fill:#FFFFFF;" points="322.936,480.608 339.948,457.279 335.918,451.896 317.531,476.852 	"/>
</g>
<path style="fill:#FFCE54;" d="M423.904,87.985c0,15.465-12.536,27.993-27.993,27.993c-15.465,0-27.993-12.528-27.993-27.993
	s12.528-27.993,27.993-27.993C411.368,59.992,423.904,72.52,423.904,87.985z"/>
<g style="opacity:0.5;">
	<path style="fill:#FFFFFF;" d="M375.916,87.985c0-14.09,10.435-25.635,23.994-27.587c-1.32-0.188-2.633-0.406-3.999-0.406
		c-15.465,0-27.993,12.528-27.993,27.993s12.528,27.993,27.993,27.993c1.366,0,2.679-0.219,3.999-0.406
		C386.35,113.619,375.916,102.075,375.916,87.985z"/>
</g>
<g style="opacity:0.2;">
	<path d="M415.906,87.985c0,14.09-10.451,25.634-23.994,27.587c1.312,0.188,2.624,0.406,3.999,0.406
		c15.457,0,27.993-12.528,27.993-27.993s-12.536-27.993-27.993-27.993c-1.375,0-2.687,0.219-3.999,0.406
		C405.455,62.35,415.906,73.895,415.906,87.985z"/>
</g>
<path style="fill:#656D78;" d="M377.525,108.941c4.92,4.327,11.31,7.037,18.386,7.037c7.17,0,13.638-2.772,18.589-7.201
	l-18.589-24.791L377.525,108.941z"/>
<g style="opacity:0.2;">
	<polygon style="fill:#FFFFFF;" points="382.929,112.698 399.941,89.367 395.911,83.986 377.525,108.941 	"/>
</g>
<g>
	<path style="fill:#FFCE54;" d="M35.991,483.888c0,4.421-3.577,7.998-7.998,7.998s-7.998-3.577-7.998-7.998s3.577-7.998,7.998-7.998
		S35.991,479.467,35.991,483.888z"/>
	<path style="fill:#FFCE54;" d="M51.987,123.976c0,4.421-3.577,7.998-7.998,7.998s-7.998-3.577-7.998-7.998
		c0-4.421,3.577-7.998,7.998-7.998S51.987,119.555,51.987,123.976z"/>
	<path style="fill:#FFCE54;" d="M43.989,28c0,4.421-3.577,7.998-7.998,7.998S27.993,32.421,27.993,28s3.577-7.998,7.998-7.998
		S43.989,23.579,43.989,28z"/>
	<path style="fill:#FFCE54;" d="M491.88,475.891c0,4.421-3.577,7.998-7.998,7.998s-7.998-3.577-7.998-7.998s3.577-7.998,7.998-7.998
		S491.88,471.469,491.88,475.891z"/>
</g>
<rect x="171.955" y="419.904" style="fill:#ED5565;" width="15.996" height="15.996"/>
<rect x="99.975" y="475.895" style="fill:#AAB2BD;" width="87.979" height="15.996"/>
<rect x="3.999" y="403.904" style="fill:#FFFFFF;" width="8.01" height="103.97"/>
<g style="opacity:0.2;">
	<rect x="195.945" y="403.904" width="8.01" height="103.97"/>
</g>
<g style="opacity:0.2;">
	<rect x="179.955" y="475.895" width="8.01" height="15.996"/>
</g>
<g style="opacity:0.5;">
	<rect x="99.975" y="475.895" style="fill:#FFFFFF;" width="8.01" height="15.996"/>
</g>
<polygon style="fill:#FFFFFF;" points="179.956,75.996 179.956,99.982 203.95,99.982 "/>
<path style="fill:#AC92EC;" d="M171.958,327.926c0,6.623-5.382,11.997-11.997,11.997c-6.631,0-11.997-5.374-11.997-11.997
	s5.366-11.997,11.997-11.997C166.576,315.929,171.958,321.303,171.958,327.926z"/>
<path style="fill:#E6E9ED;" d="M465.316,264.201l-18.371,44.348c1.953,0.812,3.515,2.366,4.327,4.319l44.349-18.363
	C489.943,280.822,479,269.878,465.316,264.201z"/>
<g style="opacity:0.3;">
	<rect x="235.945" y="403.904" style="fill:#FFFFFF;" width="8.01" height="103.97"/>
</g>
<g style="opacity:0.2;">
	<rect x="427.885" y="403.904" width="8.01" height="103.97"/>
</g>
<g style="opacity:0.2;">
	<rect x="467.885" y="435.904" width="31.992" height="7.998"/>
</g>
<g style="opacity:0.2;">
	<rect x="467.885" y="443.895" style="fill:#FFFFFF;" width="7.998" height="63.984"/>
</g>
<g style="opacity:0.2;">
	<rect x="491.885" y="443.895" width="7.998" height="63.984"/>
</g>
<g style="opacity:0.3;">
	<rect x="467.885" y="403.914" style="fill:#FFFFFF;" width="7.998" height="31.984"/>
</g>
<g style="opacity:0.2;">
	<rect x="491.885" y="403.914" width="7.998" height="31.984"/>
</g>
<rect x="99.975" y="12.004" style="fill:#AC92EC;" width="31.992" height="31.992"/>
<g style="opacity:0.3;">
	<rect x="99.975" y="12.004" style="fill:#FFFFFF;" width="31.984" height="7.998"/>
</g>
<g style="opacity:0.2;">
	<rect x="99.975" y="35.994" width="31.984" height="7.998"/>
</g>
<g style="opacity:0.2;">
	<rect x="67.985" y="20.004" width="7.998" height="15.996"/>
</g>
<rect x="171.955" y="20.004" style="fill:#FFCE54;" width="15.996" height="23.994"/>
<g style="opacity:0.3;">
	<rect x="155.965" y="20.004" style="fill:#FFFFFF;" width="15.996" height="7.998"/>
</g>
<g style="opacity:0.3;">
	<rect x="187.955" y="20.004" style="fill:#FFFFFF;" width="15.996" height="7.998"/>
</g>
<g style="opacity:0.5;">
	<rect x="171.955" y="20.004" style="fill:#FFFFFF;" width="15.996" height="7.998"/>
</g>
<g style="opacity:0.2;">
	<rect x="155.965" y="35.994" width="15.996" height="7.998"/>
</g>
<g style="opacity:0.2;">
	<rect x="187.955" y="35.994" width="15.996" height="7.998"/>
</g>
<g style="opacity:0.2;">
	<rect x="171.955" y="35.994" width="15.996" height="7.998"/>
</g>
<g style="opacity:0.5;">
	<polygon style="fill:#FFFFFF;" points="235.942,43.996 235.942,211.955 243.94,219.953 243.94,43.996 	"/>
</g>
<rect x="235.945" y="28.004" style="fill:#AAB2BD;" width="15.996" height="15.996"/>
<g style="opacity:0.5;">
	<rect x="235.945" y="28.004" style="fill:#FFFFFF;" width="7.998" height="15.996"/>
</g>
<rect x="235.945" y="12.004" style="fill:#AC92EC;" width="15.996" height="15.996"/>
<g style="opacity:0.3;">
	<rect x="235.945" y="12.004" style="fill:#FFFFFF;" width="7.998" height="15.996"/>
</g>
<g style="opacity:0.3;">
	<rect x="235.945" y="251.944" style="fill:#FFFFFF;" width="8.01" height="119.97"/>
</g>
<g style="opacity:0.2;">
	<rect x="347.915" y="251.944" width="8.01" height="119.97"/>
</g>
<rect x="283.935" y="203.954" style="fill:#E6E9ED;" width="215.95" height="15.996"/>
<g style="opacity:0.3;">
	<rect x="283.935" y="4.006" style="fill:#FFFFFF;" width="8.01" height="199.95"/>
</g>
<g style="opacity:0.2;">
	<rect x="499.875" y="4.006" width="8.01" height="199.95"/>
</g>
<rect x="3.999" y="75.984" style="fill:#FFFFFF;" width="8.01" height="295.93"/>
<g style="opacity:0.2;">
	<rect x="195.945" y="99.984" width="8.01" height="271.93"/>
</g>
<g style="opacity:0.2;">
	<rect x="283.935" y="203.954" width="8.01" height="15.996"/>
</g>
<g>
	<path style="fill:#3A3847;" d="M244.182,135.973c-2.21,0-4.038-1.789-4.038-3.999s1.75-3.999,3.952-3.999h0.086
		c2.202,0,3.999,1.789,3.999,3.999S246.384,135.973,244.182,135.973z"/>
	<path style="fill:#3A3847;" d="M203.95,375.915H3.999c-2.21,0-3.999-1.789-3.999-3.999V75.988c0-2.21,1.789-3.999,3.999-3.999
		h175.957c2.21,0,3.999,1.789,3.999,3.999s-1.789,3.999-3.999,3.999H7.998v287.93h191.953V99.982c0-2.21,1.789-3.999,3.999-3.999
		s3.999,1.789,3.999,3.999v271.934C207.949,374.126,206.16,375.915,203.95,375.915z"/>
	<path style="fill:#3A3847;" d="M355.913,375.915H235.942c-2.21,0-3.999-1.789-3.999-3.999V251.945c0-2.21,1.789-3.999,3.999-3.999
		h119.971c2.21,0,3.999,1.789,3.999,3.999v119.971C359.912,374.126,358.123,375.915,355.913,375.915z M239.941,367.917h111.973
		V255.944H239.941V367.917z"/>
	<path style="fill:#3A3847;" d="M203.95,511.882H3.999c-2.21,0-3.999-1.789-3.999-3.999V403.908c0-2.21,1.789-3.999,3.999-3.999
		H203.95c2.21,0,3.999,1.789,3.999,3.999v103.975C207.949,510.092,206.16,511.882,203.95,511.882z M7.998,503.883h191.953v-95.977
		H7.998V503.883z"/>
	<path style="fill:#3A3847;" d="M435.893,511.882H235.942c-2.21,0-3.999-1.789-3.999-3.999V403.908c0-2.21,1.789-3.999,3.999-3.999
		h199.951c2.21,0,3.999,1.789,3.999,3.999v103.975C439.892,510.092,438.103,511.882,435.893,511.882z M239.941,503.883h191.953
		v-95.977H239.941V503.883z"/>
	<path style="fill:#3A3847;" d="M507.876,207.956H283.93c-2.21,0-3.999-1.789-3.999-3.999V4.006c0-2.21,1.789-3.999,3.999-3.999
		h223.945c2.21,0,3.999,1.789,3.999,3.999v199.951C511.875,206.167,510.086,207.956,507.876,207.956z M287.929,199.958h215.947
		V8.005H287.929V199.958z"/>
	<path style="fill:#3A3847;" d="M67.983,47.995H3.999C1.789,47.995,0,46.206,0,43.996V12.004c0-2.21,1.789-3.999,3.999-3.999h63.984
		c2.21,0,3.999,1.789,3.999,3.999v31.992C71.982,46.206,70.194,47.995,67.983,47.995z M7.998,39.997h55.986V16.003H7.998V39.997z"/>
	<path style="fill:#3A3847;" d="M131.967,47.995H99.975c-2.21,0-3.999-1.789-3.999-3.999V12.004c0-2.21,1.789-3.999,3.999-3.999
		h31.992c2.21,0,3.999,1.789,3.999,3.999v31.992C135.966,46.206,134.178,47.995,131.967,47.995z M103.974,39.997h23.994V16.003
		h-23.994C103.974,16.003,103.974,39.997,103.974,39.997z"/>
	<path style="fill:#3A3847;" d="M243.94,223.952c-1.023,0-2.046-0.391-2.827-1.172l-7.998-7.998c-0.75-0.75-1.172-1.765-1.172-2.827
		V12.004c0-2.21,1.789-3.999,3.999-3.999h15.996c2.21,0,3.999,1.789,3.999,3.999v199.951c0,1.062-0.422,2.078-1.172,2.827
		l-7.998,7.998C245.987,223.561,244.964,223.952,243.94,223.952z M239.941,210.298l3.999,3.999l3.999-3.999V16.003h-7.998
		L239.941,210.298L239.941,210.298z"/>
	<path style="fill:#3A3847;" d="M203.95,103.981c-1.023,0-2.046-0.391-2.827-1.172l-23.994-23.994c-1.562-1.562-1.562-4.093,0-5.654
		c1.562-1.562,4.093-1.562,5.654,0l23.994,23.994c1.562,1.562,1.562,4.092,0,5.654C205.996,103.59,204.973,103.981,203.95,103.981z"
		/>
	<path style="fill:#3A3847;" d="M195.952,103.981h-15.996c-2.21,0-3.999-1.789-3.999-3.999s1.789-3.999,3.999-3.999h15.996
		c2.21,0,3.999,1.789,3.999,3.999S198.162,103.981,195.952,103.981z"/>
	<path style="fill:#3A3847;" d="M179.956,103.981c-2.21,0-3.999-1.789-3.999-3.999V83.986c0-2.21,1.789-3.999,3.999-3.999
		s3.999,1.789,3.999,3.999v15.996C183.955,102.193,182.166,103.981,179.956,103.981z"/>
	<path style="fill:#3A3847;" d="M295.935,343.923c-17.645,0-32-14.348-32-31.992s14.355-31.992,32-31.992
		s31.992,14.348,31.992,31.992S313.58,343.923,295.935,343.923z M295.935,287.936c-13.231,0-24.002,10.763-24.002,23.994
		s10.771,23.994,24.002,23.994s23.994-10.763,23.994-23.994S309.167,287.936,295.935,287.936z"/>
	<path style="fill:#3A3847;" d="M283.938,327.926c-0.836,0-1.68-0.258-2.397-0.797c-1.766-1.328-2.125-3.835-0.805-5.6
		l11.997-15.996c1.343-1.766,3.851-2.125,5.6-0.805c1.766,1.328,2.125,3.835,0.805,5.6l-11.997,15.996
		C286.351,327.372,285.149,327.926,283.938,327.926z"/>
	<path style="fill:#3A3847;" d="M307.932,327.926c-1.211,0-2.413-0.555-3.202-1.602l-11.997-15.996
		c-1.32-1.765-0.961-4.271,0.804-5.6c1.758-1.32,4.266-0.961,5.601,0.805l11.997,15.996c1.32,1.765,0.961,4.271-0.805,5.6
		C309.611,327.669,308.768,327.926,307.932,327.926z"/>
	<path style="fill:#3A3847;" d="M335.925,487.887c-17.645,0-32-14.348-32-31.992s14.355-31.992,32-31.992
		s31.992,14.348,31.992,31.992S353.57,487.887,335.925,487.887z M335.925,431.901c-13.231,0-24.002,10.763-24.002,23.994
		s10.771,23.994,24.002,23.994s23.994-10.763,23.994-23.994S349.157,431.901,335.925,431.901z"/>
	<path style="fill:#3A3847;" d="M323.928,471.891c-0.836,0-1.68-0.258-2.397-0.797c-1.766-1.328-2.125-3.835-0.805-5.6
		l11.997-15.996c1.343-1.766,3.851-2.125,5.6-0.805c1.766,1.328,2.125,3.835,0.805,5.6l-11.997,15.996
		C326.341,471.337,325.139,471.891,323.928,471.891z"/>
	<path style="fill:#3A3847;" d="M347.923,471.891c-1.211,0-2.413-0.555-3.202-1.602l-11.997-15.996
		c-1.32-1.765-0.961-4.271,0.804-5.6c1.758-1.32,4.266-0.969,5.601,0.805l11.997,15.996c1.32,1.765,0.961,4.271-0.805,5.6
		C349.601,471.633,348.758,471.891,347.923,471.891z"/>
	<path style="fill:#3A3847;" d="M395.911,119.977c-17.645,0-32-14.348-32-31.992c0-17.645,14.355-31.992,32-31.992
		c17.644,0,31.992,14.348,31.992,31.992S413.554,119.977,395.911,119.977z M395.911,63.991c-13.231,0-24.002,10.763-24.002,23.994
		s10.771,23.994,24.002,23.994s23.994-10.763,23.994-23.994S409.142,63.991,395.911,63.991z"/>
	<path style="fill:#3A3847;" d="M383.914,103.981c-0.836,0-1.68-0.258-2.398-0.797c-1.765-1.328-2.124-3.835-0.804-5.6
		l11.997-15.996c1.336-1.757,3.851-2.117,5.6-0.804c1.766,1.328,2.125,3.835,0.805,5.6l-11.997,15.996
		C386.327,103.426,385.125,103.981,383.914,103.981z"/>
	<path style="fill:#3A3847;" d="M407.908,103.981c-1.211,0-2.414-0.555-3.202-1.602l-11.997-15.996
		c-1.32-1.765-0.961-4.272,0.805-5.6c1.757-1.32,4.264-0.961,5.6,0.804l11.997,15.996c1.32,1.765,0.961,4.272-0.805,5.6
		C409.588,103.723,408.744,103.981,407.908,103.981z"/>
	<path style="fill:#3A3847;" d="M43.989,135.973c-6.616,0-11.997-5.382-11.997-11.997c0-6.616,5.381-11.997,11.997-11.997
		c6.615,0,11.997,5.381,11.997,11.997C55.986,130.591,50.604,135.973,43.989,135.973z M43.989,119.977
		c-2.203,0-3.999,1.796-3.999,3.999s1.796,3.999,3.999,3.999s3.999-1.796,3.999-3.999S46.192,119.977,43.989,119.977z"/>
	<path style="fill:#3A3847;" d="M115.971,119.977H67.983c-2.21,0-3.999-1.789-3.999-3.999s1.789-3.999,3.999-3.999h47.988
		c2.21,0,3.999,1.789,3.999,3.999S118.182,119.977,115.971,119.977z"/>
	<path style="fill:#3A3847;" d="M91.977,135.973H67.983c-2.21,0-3.999-1.789-3.999-3.999s1.789-3.999,3.999-3.999h23.994
		c2.21,0,3.999,1.789,3.999,3.999S94.188,135.973,91.977,135.973z"/>
	<path style="fill:#3A3847;" d="M171.958,191.96H35.991c-2.21,0-3.999-1.789-3.999-3.999s1.789-3.999,3.999-3.999h135.967
		c2.21,0,3.999,1.789,3.999,3.999S174.168,191.96,171.958,191.96z"/>
	<path style="fill:#3A3847;" d="M171.958,215.954H35.991c-2.21,0-3.999-1.789-3.999-3.999s1.789-3.999,3.999-3.999h135.967
		c2.21,0,3.999,1.789,3.999,3.999S174.168,215.954,171.958,215.954z"/>
	<path style="fill:#3A3847;" d="M171.958,239.948H35.991c-2.21,0-3.999-1.789-3.999-3.999s1.789-3.999,3.999-3.999h135.967
		c2.21,0,3.999,1.789,3.999,3.999S174.168,239.948,171.958,239.948z"/>
	<path style="fill:#3A3847;" d="M171.958,263.942H35.991c-2.21,0-3.999-1.789-3.999-3.999s1.788-3.999,3.999-3.999h135.967
		c2.21,0,3.999,1.789,3.999,3.999S174.168,263.942,171.958,263.942z"/>
	<path style="fill:#3A3847;" d="M99.975,287.936H35.991c-2.21,0-3.999-1.789-3.999-3.999s1.789-3.999,3.999-3.999h63.984
		c2.21,0,3.999,1.789,3.999,3.999S102.186,287.936,99.975,287.936z"/>
	<path style="fill:#3A3847;" d="M159.961,343.923c-8.818,0-15.996-7.178-15.996-15.996s7.178-15.996,15.996-15.996
		s15.996,7.178,15.996,15.996S168.779,343.923,159.961,343.923z M159.961,319.928c-4.413,0-7.998,3.585-7.998,7.998
		s3.585,7.998,7.998,7.998s7.998-3.585,7.998-7.998S164.374,319.928,159.961,319.928z"/>
	<path style="fill:#3A3847;" d="M83.979,24.001h-7.998c-2.21,0-3.999-1.789-3.999-3.999s1.789-3.999,3.999-3.999h7.998
		c2.21,0,3.999,1.789,3.999,3.999S86.19,24.001,83.979,24.001z"/>
	<path style="fill:#3A3847;" d="M83.979,39.997h-7.998c-2.21,0-3.999-1.789-3.999-3.999s1.789-3.999,3.999-3.999h7.998
		c2.21,0,3.999,1.789,3.999,3.999S86.19,39.997,83.979,39.997z"/>
	<path style="fill:#3A3847;" d="M83.979,39.997c-2.21,0-3.999-1.789-3.999-3.999V20.002c0-2.21,1.789-3.999,3.999-3.999
		s3.999,1.789,3.999,3.999v15.996C87.978,38.208,86.19,39.997,83.979,39.997z"/>
	<path style="fill:#3A3847;" d="M35.991,39.997c-6.616,0-11.997-5.382-11.997-11.997c0-6.616,5.381-11.997,11.997-11.997
		c6.615,0,11.997,5.381,11.997,11.997C47.988,34.615,42.606,39.997,35.991,39.997z M35.991,24.001c-2.203,0-3.999,1.796-3.999,3.999
		s1.796,3.999,3.999,3.999S39.99,30.203,39.99,28S38.194,24.001,35.991,24.001z"/>
	<path style="fill:#3A3847;" d="M251.938,47.995h-15.996c-2.21,0-3.999-1.789-3.999-3.999s1.789-3.999,3.999-3.999h15.996
		c2.21,0,3.999,1.789,3.999,3.999S254.149,47.995,251.938,47.995z"/>
	<path style="fill:#3A3847;" d="M251.938,31.999h-15.996c-2.21,0-3.999-1.789-3.999-3.999s1.789-3.999,3.999-3.999h15.996
		c2.21,0,3.999,1.789,3.999,3.999S254.149,31.999,251.938,31.999z"/>
	<path style="fill:#3A3847;" d="M203.95,47.995h-47.988c-2.21,0-3.999-1.789-3.999-3.999V20.002c0-2.21,1.789-3.999,3.999-3.999
		h47.988c2.21,0,3.999,1.789,3.999,3.999v23.994C207.949,46.206,206.16,47.995,203.95,47.995z M159.961,39.997h39.99V24.001h-39.99
		V39.997z"/>
	<path style="fill:#3A3847;" d="M171.958,47.995c-2.21,0-3.999-1.789-3.999-3.999V20.002c0-2.21,1.789-3.999,3.999-3.999
		s3.999,1.789,3.999,3.999v23.994C175.957,46.206,174.168,47.995,171.958,47.995z"/>
	<path style="fill:#3A3847;" d="M187.954,47.995c-2.21,0-3.999-1.789-3.999-3.999V20.002c0-2.21,1.789-3.999,3.999-3.999
		s3.999,1.789,3.999,3.999v23.994C191.953,46.206,190.164,47.995,187.954,47.995z"/>
	<path style="fill:#3A3847;" d="M443.86,375.93c-7.873,0-15.59-1.539-22.932-4.577c-30.548-12.669-45.114-47.832-32.469-78.387
		c9.333-22.503,31.102-37.038,55.455-37.038c7.881,0,15.598,1.539,22.932,4.577c30.548,12.661,45.114,47.824,32.469,78.379
		C489.99,361.395,468.221,375.93,443.86,375.93z M443.915,263.926c-21.112,0-39.982,12.599-48.066,32.102
		c-10.958,26.485,1.663,56.963,28.142,67.937c6.365,2.632,13.052,3.968,19.87,3.968c21.112,0,39.982-12.599,48.066-32.109
		c10.958-26.479-1.664-56.955-28.142-67.929C457.427,265.262,450.741,263.926,443.915,263.926z"/>
	<path style="fill:#3A3847;" d="M443.883,327.926c-1.578,0-3.124-0.305-4.593-0.914c-2.952-1.227-5.264-3.53-6.49-6.498
		c-1.227-2.961-1.227-6.226,0-9.186c2.46-5.943,9.677-8.967,15.684-6.482c2.952,1.219,5.256,3.53,6.49,6.49
		c1.227,2.96,1.227,6.225,0,9.186C453.116,325.021,448.757,327.926,443.883,327.926z M443.891,311.93
		c-1.625,0-3.077,0.969-3.702,2.468c-0.406,0.984-0.406,2.07,0,3.054c0.406,0.992,1.18,1.758,2.163,2.172
		c2.094,0.844,4.413-0.188,5.233-2.164c0.406-0.983,0.406-2.069,0-3.062c-0.414-0.983-1.18-1.757-2.164-2.163
		C444.923,312.033,444.415,311.93,443.891,311.93z"/>
	<path style="fill:#3A3847;" d="M283.93,223.952c-2.21,0-3.999-1.789-3.999-3.999v-15.996c0-2.21,1.789-3.999,3.999-3.999
		s3.999,1.789,3.999,3.999v15.996C287.929,222.163,286.14,223.952,283.93,223.952z"/>
	<path style="fill:#3A3847;" d="M507.891,223.952H283.93c-2.21,0-3.999-1.789-3.999-3.999s1.789-3.999,3.999-3.999h223.961
		c2.21,0,3.999,1.789,3.999,3.999S510.101,223.952,507.891,223.952z"/>
	<path style="fill:#3A3847;" d="M499.878,223.952c-2.21,0-3.999-1.789-3.999-3.999v-15.996c0-2.21,1.789-3.999,3.999-3.999
		s3.999,1.789,3.999,3.999v15.996C503.877,222.163,502.088,223.952,499.878,223.952z"/>
	<path style="fill:#3A3847;" d="M459.887,143.971H331.919c-2.21,0-3.999-1.789-3.999-3.999s1.789-3.999,3.999-3.999h127.969
		c2.21,0,3.999,1.789,3.999,3.999S462.097,143.971,459.887,143.971z"/>
	<path style="fill:#3A3847;" d="M435.893,159.967h-79.98c-2.21,0-3.999-1.789-3.999-3.999s1.789-3.999,3.999-3.999h79.98
		c2.21,0,3.999,1.789,3.999,3.999S438.103,159.967,435.893,159.967z"/>
	<path style="fill:#3A3847;" d="M27.993,495.885c-6.616,0-11.997-5.382-11.997-11.997c0-6.616,5.381-11.997,11.997-11.997
		c6.615,0,11.997,5.381,11.997,11.997S34.608,495.885,27.993,495.885z M27.993,479.889c-2.203,0-3.999,1.797-3.999,3.999
		s1.796,3.999,3.999,3.999s3.999-1.797,3.999-3.999S30.195,479.889,27.993,479.889z"/>
	<path style="fill:#3A3847;" d="M187.954,495.885H99.975c-2.21,0-3.999-1.789-3.999-3.999v-15.996c0-2.21,1.789-3.999,3.999-3.999
		h87.979c2.21,0,3.999,1.789,3.999,3.999v15.996C191.953,494.096,190.164,495.885,187.954,495.885z M103.974,487.887h79.98v-7.998
		h-79.98V487.887z"/>
	<path style="fill:#3A3847;" d="M187.954,439.899h-15.996c-2.21,0-3.999-1.789-3.999-3.999v-15.996c0-2.21,1.789-3.999,3.999-3.999
		h15.996c2.21,0,3.999,1.789,3.999,3.999V435.9C191.953,438.11,190.164,439.899,187.954,439.899z M175.957,431.901h7.998v-7.998
		h-7.998V431.901z"/>
	<path style="fill:#3A3847;" d="M67.983,487.887H51.987c-2.21,0-3.999-1.789-3.999-3.999s1.789-3.999,3.999-3.999h15.996
		c2.21,0,3.999,1.789,3.999,3.999S70.194,487.887,67.983,487.887z"/>
	<path style="fill:#3A3847;" d="M59.985,423.904h-39.99c-2.21,0-3.999-1.789-3.999-3.999s1.789-3.999,3.999-3.999h39.99
		c2.21,0,3.999,1.789,3.999,3.999S62.195,423.904,59.985,423.904z"/>
	<path style="fill:#3A3847;" d="M283.93,471.891h-23.994c-2.21,0-3.999-1.789-3.999-3.999s1.789-3.999,3.999-3.999h23.994
		c2.21,0,3.999,1.789,3.999,3.999S286.14,471.891,283.93,471.891z"/>
	<path style="fill:#3A3847;" d="M283.93,447.897h-23.994c-2.21,0-3.999-1.789-3.999-3.999s1.789-3.999,3.999-3.999h23.994
		c2.21,0,3.999,1.789,3.999,3.999S286.14,447.897,283.93,447.897z"/>
	<path style="fill:#3A3847;" d="M411.899,471.891h-23.994c-2.21,0-3.999-1.789-3.999-3.999s1.789-3.999,3.999-3.999h23.994
		c2.21,0,3.999,1.789,3.999,3.999S414.109,471.891,411.899,471.891z"/>
	<path style="fill:#3A3847;" d="M411.899,447.897h-23.994c-2.21,0-3.999-1.789-3.999-3.999s1.789-3.999,3.999-3.999h23.994
		c2.21,0,3.999,1.789,3.999,3.999S414.109,447.897,411.899,447.897z"/>
	<path style="fill:#3A3847;" d="M499.878,511.882h-31.993c-2.21,0-3.999-1.789-3.999-3.999v-63.984c0-2.21,1.789-3.999,3.999-3.999
		s3.999,1.789,3.999,3.999v59.985h23.994V443.9c0-2.21,1.789-3.999,3.999-3.999s3.999,1.789,3.999,3.999v63.984
		C503.877,510.092,502.088,511.882,499.878,511.882z"/>
	<path style="fill:#3A3847;" d="M499.878,439.899h-31.993c-2.21,0-3.999-1.789-3.999-3.999v-31.992c0-2.21,1.789-3.999,3.999-3.999
		h31.992c2.21,0,3.999,1.789,3.999,3.999V435.9C503.877,438.11,502.088,439.899,499.878,439.899z M471.884,431.901h23.994v-23.994
		h-23.994V431.901z"/>
	<path style="fill:#3A3847;" d="M491.88,439.899h-15.996c-2.21,0-3.999-1.789-3.999-3.999s1.789-3.999,3.999-3.999h15.996
		c2.21,0,3.999,1.789,3.999,3.999S494.09,439.899,491.88,439.899z"/>
	<path style="fill:#3A3847;" d="M483.882,487.887c-6.616,0-11.997-5.382-11.997-11.997c0-6.616,5.381-11.997,11.997-11.997
		c6.615,0,11.997,5.381,11.997,11.997C495.879,482.507,490.497,487.887,483.882,487.887z M483.882,471.891
		c-2.202,0-3.999,1.797-3.999,3.999s1.797,3.999,3.999,3.999s3.999-1.797,3.999-3.999S486.084,471.891,483.882,471.891z"/>
</g>
<g>
</g>
<g>
</g>
<g>
</g>
<g>
</g>
<g>
</g>
<g>
</g>
<g>
</g>
<g>
</g>
<g>
</g>
<g>
</g>
<g>
</g>
<g>
</g>
<g>
</g>
<g>
</g>
<g>
</g>
</svg>
