<?xml version="1.0" encoding="iso-8859-1"?>
<!-- Generator: Adobe Illustrator 19.0.0, SVG Export Plug-In . SVG Version: 6.00 Build 0)  -->
<svg version="1.1" id="Capa_1" xmlns="http://www.w3.org/2000/svg" xmlns:xlink="http://www.w3.org/1999/xlink" x="0px" y="0px"
	 viewBox="0 0 512 512" style="enable-background:new 0 0 512 512;" xml:space="preserve">
<path style="fill:#5C5E70;" d="M512,256c0,4.504-0.115,8.986-0.345,13.437c-0.637,12.288-2.142,24.346-4.451,36.112
	c-5.089,25.976-14.117,50.542-26.425,73.059c-8.056,14.743-17.523,28.609-28.223,41.409c-0.272,0.334-0.543,0.658-0.815,0.982
	c-10.031,11.891-21.128,22.852-33.144,32.737C374.376,490.141,317.753,512,256,512c-70.269,0-133.914-28.306-180.172-74.146
	C29.006,391.471,0,327.116,0,256c0-30.104,5.193-58.995,14.744-85.828c4.535-12.748,10.052-25.046,16.468-36.77
	c7.607-13.928,16.478-27.063,26.457-39.267c12.915-15.83,27.711-30.072,44.022-42.412c8.338-6.311,17.084-12.121,26.175-17.387
	c21.41-12.413,44.774-21.797,69.528-27.596C216.21,2.33,235.833,0,256,0c27.073,0,53.175,4.2,77.667,11.995
	c14.137,4.493,27.732,10.177,40.688,16.948c9.665,5.047,18.965,10.689,27.847,16.896l0.01,0.01
	c7.011,4.869,13.74,10.083,20.208,15.632c0.01,0.01,0.01,0.021,0.021,0.021c1.296,1.097,2.56,2.194,3.824,3.333
	c2.382,2.121,4.723,4.284,7.022,6.499c5.59,5.36,10.93,10.971,16.018,16.823c12.549,14.43,23.5,30.292,32.59,47.292
	C501.112,171.363,512,212.417,512,256z"/>
<path style="fill:#FCF8F2;" d="M277.023,51.722H17.471C7.816,51.722,0,59.549,0,69.193v100.979h294.494V69.193
	C294.494,59.549,286.678,51.722,277.023,51.722z"/>
<g>
	<path style="fill:#F9EED7;" d="M294.494,170.172v250.201c0,9.655-7.816,17.481-17.471,17.481H75.828
		C29.006,391.471,0,327.116,0,256v-85.828H294.494z"/>
	<path style="fill:#F9EED7;" d="M463.297,247.306H350.26c-9.655,0-17.471,7.816-17.471,17.471v171.478
		c0,9.655,7.816,17.48,17.471,17.48h68.336c12.016-9.885,23.113-20.846,33.144-32.737c0.272-0.324,0.543-0.648,0.815-0.982
		c10.7-12.8,20.167-26.666,28.223-41.409v-113.83C480.778,255.122,472.952,247.306,463.297,247.306z"/>
</g>
<path style="fill:#FCF8F2;" d="M463.297,123.34H350.26c-9.655,0-17.471,7.826-17.471,17.471v53.206
	c0,9.655,7.816,17.471,17.471,17.471h113.037c9.655,0,17.481-7.816,17.481-17.471V140.81
	C480.778,131.166,472.952,123.34,463.297,123.34z"/>
<path style="fill:#F9EED7;" d="M463.297,0H350.26c-7.743,0-14.294,5.026-16.593,11.995c-0.575,1.724-0.878,3.563-0.878,5.475v53.206
	c0,9.655,7.816,17.481,17.471,17.481h113.037c9.655,0,17.481-7.826,17.481-17.481V17.471C480.778,7.826,472.952,0,463.297,0z"/>
<rect x="420.979" y="148.929" style="fill:#34ABE0;" width="35" height="11.577"/>
<rect x="420.979" y="174.331" style="fill:#5C5E70;" width="35" height="11.577"/>
<rect x="227.579" y="86.779" style="fill:#34ABE0;" width="39.15" height="12.95"/>
<rect x="227.579" y="115.19" style="fill:#5C5E70;" width="39.15" height="12.95"/>
<rect x="361.002" y="354.534" style="fill:#34ABE0;" width="91.554" height="13.893"/>
<g>
	<rect x="361.002" y="380.823" style="fill:#5C5E70;" width="91.554" height="13.893"/>
	<path style="fill:#5C5E70;" d="M452.556,407.113v12.904c-0.272,0.334-0.543,0.658-0.815,0.982h-90.739v-13.887H452.556z"/>
	<rect x="28.432" y="234.757" style="fill:#5C5E70;" width="237.62" height="14.246"/>
	<rect x="28.432" y="265.112" style="fill:#5C5E70;" width="237.62" height="14.246"/>
	<rect x="28.432" y="295.455" style="fill:#5C5E70;" width="237.62" height="14.246"/>
	<rect x="216.085" y="339.968" style="fill:#5C5E70;" width="49.977" height="14.246"/>
</g>
<g>
	<rect x="90.363" y="204.413" style="fill:#34ABE0;" width="113.758" height="14.246"/>
	<path style="fill:#34ABE0;" d="M37.564,90.207l-16.019,27.745c-3.964,6.866,0.991,15.448,8.919,15.448h32.038
		c7.928,0,12.883-8.582,8.919-15.448L55.402,90.207C51.437,83.341,41.527,83.341,37.564,90.207z"/>
</g>
<path style="fill:#5C5E70;" d="M107.7,128.251l16.019-27.745c3.964-6.866-0.991-15.448-8.919-15.448H82.761
	c-7.928,0-12.883,8.582-8.919,15.448l16.019,27.745C93.826,135.117,103.735,135.117,107.7,128.251z"/>
<path style="fill:#34ABE0;" d="M375.43,27.072l-14.32,24.804c-3.543,6.138,0.886,13.81,7.974,13.81h28.641
	c7.088,0,11.517-7.673,7.974-13.81l-14.32-24.804C387.833,20.935,378.974,20.935,375.43,27.072z"/>
<path style="fill:#5C5E70;" d="M438.13,61.083l14.32-24.804c3.543-6.138-0.886-13.81-7.974-13.81h-28.641
	c-7.088,0-11.517,7.673-7.974,13.81l14.32,24.804C425.727,67.22,434.586,67.22,438.13,61.083z"/>
<path style="fill:#34ABE0;" d="M375.43,288.807l-14.32,24.804c-3.543,6.138,0.886,13.81,7.974,13.81h28.641
	c7.088,0,11.517-7.673,7.974-13.81l-14.32-24.804C387.833,282.668,378.974,282.668,375.43,288.807z"/>
<path style="fill:#5C5E70;" d="M438.13,322.817l14.32-24.804c3.543-6.138-0.886-13.81-7.974-13.81h-28.641
	c-7.088,0-11.517,7.673-7.974,13.81l14.32,24.804C425.727,328.955,434.586,328.955,438.13,322.817z"/>
<path style="fill:#34ABE0;" d="M353.705,157.33l-9.478,16.416c-2.346,4.063,0.586,9.141,5.277,9.141h18.957
	c4.691,0,7.623-5.078,5.277-9.141l-9.478-16.416C361.914,153.268,356.051,153.268,353.705,157.33z"/>
<path style="fill:#5C5E70;" d="M395.203,179.841l9.478-16.416c2.346-4.063-0.586-9.141-5.277-9.141h-18.957
	c-4.691,0-7.623,5.078-5.277,9.141l9.478,16.416C386.995,183.903,392.859,183.903,395.203,179.841z"/>
<g>
</g>
<g>
</g>
<g>
</g>
<g>
</g>
<g>
</g>
<g>
</g>
<g>
</g>
<g>
</g>
<g>
</g>
<g>
</g>
<g>
</g>
<g>
</g>
<g>
</g>
<g>
</g>
<g>
</g>
</svg>
