<svg height="512" viewBox="0 0 512 512" width="512" xmlns="http://www.w3.org/2000/svg"><g id="Filledotuline"><path d="m456 24h-432v392l72 72h360z" fill="#e4e4e3"/><path d="m72 72h192v288h-192z" fill="#eaae48"/><path d="m264 248h144v32h-144z" fill="#0093b9"/><path d="m264 280h144v80h-144z" fill="#0784a9"/><path d="m304 72h104v64h-104z" fill="#85bb40"/><path d="m360 248h-48l-8-40h64z" fill="#eaae48"/><path d="m96 488v-72h-72z" fill="#b3b1b3"/><path d="m472.605 431.98-319.59 16.194-16.789-15.174 15.174-16.785 319.59-16.194a16 16 0 0 1 16.789 15.17 16 16 0 0 1 -15.174 16.789z" fill="#fbbe1f"/><path d="m192 208h16v16h-16z"/><path d="m128 208h16v16h-16z"/><path d="m296 312h16v16h-16z"/><path d="m360 312h16v16h-16z"/><path d="m392 384v-16h16a8 8 0 0 0 8-8v-112a8 8 0 0 0 -8-8h-38.241l6.086-30.431a8 8 0 0 0 -7.845-9.569h-6.241l6.086-30.431-15.69-3.138-6.713 33.569h-18.884l-6.713-33.569-15.69 3.138 6.086 30.431h-6.241a8 8 0 0 0 -7.845 9.569l6.086 30.431h-30.241v-168a8 8 0 0 0 -8-8h-192a8 8 0 0 0 -8 8v288a8 8 0 0 0 8 8h24v16h16v-16h112v16h16v-16h48v16h16v-16h72v16zm-312-304h80v272h-80zm176 272h-80v-272h80zm88 0v-64h56v64zm-16 0h-56v-64h56zm-14.241-136h44.482l-4.8 24h-34.882zm86.241 40v16h-128v-16z"/><path d="m416 72a8 8 0 0 0 -8-8h-104a8 8 0 0 0 -8 8v64a8 8 0 0 0 8 8h104a8 8 0 0 0 8-8zm-16 56h-88v-48h88z"/><path d="m448 480h-344v-64a8 8 0 0 0 -8-8h-64v-376h416v344h16v-352a8 8 0 0 0 -8-8h-432a8 8 0 0 0 -8 8v392a8 8 0 0 0 2.343 5.657l72 72a8 8 0 0 0 5.657 2.343h360a8 8 0 0 0 8-8v-32h-16zm-360-11.313-44.687-44.687h44.687z"/><path d="m495.764 414.786a24 24 0 0 0 -25.184-22.755l-319.59 16.194a8 8 0 0 0 -5.53 2.626l-15.17 16.79a8 8 0 0 0 .572 11.3l16.789 15.169a8 8 0 0 0 5.364 2.064c.134 0 .269 0 .405-.01l319.59-16.194a24 24 0 0 0 22.754-25.184zm-348.24 17.645 7.586-8.394 20.659-1.047.81 15.979-20.66 1.047zm330.206-11.067a7.946 7.946 0 0 1 -5.531 2.626l-279.64 14.17-.809-15.98 279.641-14.169a8 8 0 0 1 6.339 13.353z"/></g></svg>